<?xml version="1.0" encoding="UTF-8" standalone="no"?><!DOCTYPE svg PUBLIC "-//W3C//DTD SVG 1.1//EN" "http://www.w3.org/Graphics/SVG/1.1/DTD/svg11.dtd"><svg width="100%" height="100%" viewBox="0 0 2363 2363" version="1.1" xmlns="http://www.w3.org/2000/svg" xmlns:xlink="http://www.w3.org/1999/xlink" xml:space="preserve" xmlns:serif="http://www.serif.com/" style="fill-rule:evenodd;clip-rule:evenodd;stroke-linecap:round;stroke-linejoin:round;stroke-miterlimit:1.5;"><path d="M1181.1,23.622c638.831,0 1157.48,518.65 1157.48,1157.48c-0,638.831 -518.65,1157.48 -1157.48,1157.48c-638.83,-0 -1157.48,-518.65 -1157.48,-1157.48c0,-638.83 518.65,-1157.48 1157.48,-1157.48Zm163.615,2098.61c19.456,3.1 41.965,-2.954 57.741,-6.684c420.622,-99.432 734.671,-475.78 738.741,-925.597c0.026,-2.947 1.974,-18.173 -6.821,-30.759c-5.595,-8.007 -16.488,-18.121 -33.743,-20.356c-44.838,-5.807 -214.976,8.544 -231.026,0.942c-7.784,-3.687 -36.151,-174.586 -31.052,-181.527c10.249,-13.95 175.747,-59.777 215.243,-81.472c13.261,-7.284 18.223,-25.45 16.662,-39.948c-2.321,-21.55 -6.558,-33.904 -12.626,-47.452c-149.982,-334.864 -486.299,-568.414 -876.734,-568.414c-410.144,-0 -760.568,257.725 -898.02,619.923c-1.051,2.769 -2.789,13.009 -2.783,15.972c0.05,24.27 5.641,40.556 21.038,47.849c40.167,19.026 205.63,49.35 218.188,61.908c6.091,6.091 -18.232,184.178 -25.369,188.999c-11.461,7.743 -126.191,1.993 -195.049,3.255c-17.316,0.317 -31.732,1.078 -40.874,2.609c-16.626,2.783 -35.217,23.868 -36.664,39.622c-0.926,10.08 -0.031,13.861 0.187,19.278c17.665,438.181 329.585,801.134 743.266,896.404c13.201,3.04 31.377,5.657 45.311,3.309c13.874,-2.338 31.461,-10.228 36.096,-25.642c13.129,-43.664 26.285,-216.717 36.677,-231.119c5.04,-6.984 184.726,-6.855 190.625,-0.579c11.856,12.613 25.095,189.347 38.902,233.261c4.623,14.703 15.039,23.501 32.084,26.218Z" style="fill:#d58569;stroke:#a7281c;stroke-width:25px;"/><path d="M1224.36,32.996c0.003,-0.094 -26.308,-1.033 -54.035,-0.826c-24.173,0.18 -50.307,1.567 -50.305,1.605c4.987,91.487 4.909,91.862 3.293,180.273c-0.005,0.28 17.701,-1.312 51.78,-1.566c31.384,-0.233 53.215,1.353 53.171,0.979c-5.246,-44.444 -5.665,-133.978 -3.904,-180.465Z" style="fill:#fffa18;stroke:#fffa19;stroke-width:16.67px;"/><path d="M1010.13,945.955c26.806,-24.226 92.851,-58.422 170.318,-58.422c76.833,-0 128.382,27.385 167.624,55.322c24.268,17.277 46.349,38.149 79.421,37.705c116.273,-1.561 410.45,-19.717 410.45,-19.717l30.549,174.7c-0,0 -305.762,88.208 -375.036,110.614c-10.177,3.291 -25.771,9.183 -36.951,19.166c-11.841,10.573 -73.717,84.533 -87.791,102.477c-21.589,27.524 -47.461,61.27 -60.466,113.147c-17.805,71.02 -36.369,377.127 -36.369,377.127l-187.04,3.447c-0,0 -11.565,-307.817 -30.524,-379.275c-13.344,-50.295 -39.645,-80.266 -50.635,-96.758c-41.492,-62.263 -74.105,-89.211 -98.031,-112.251c-12.586,-12.12 -30.868,-21.844 -45.523,-25.989c-69.274,-19.591 -363.04,-94.819 -363.04,-94.819l24.03,-178.597c-0,-0 331.122,7.575 409.15,9.092c28.021,0.545 54.796,-14.314 79.864,-36.969Zm135.717,606.932c-3.674,40.394 8.909,185.651 14.667,225.251c1.122,7.72 13.353,11.978 19.882,12.349c6.529,0.371 18.186,-2.946 19.291,-10.123c6.038,-39.203 19.791,-184.327 16.936,-225.092c-0.914,-13.052 -22.272,-19.099 -34.068,-19.497c-11.796,-0.397 -35.485,3.667 -36.708,17.112Zm-347.861,-492.464c-39.943,-7.054 -185.743,-6.716 -225.687,-4.305c-7.787,0.47 -13.057,12.3 -13.975,18.775c-0.918,6.475 1.408,18.369 8.467,20.073c38.556,9.309 182.013,35.204 222.873,35.782c13.083,0.186 20.903,-20.589 22.29,-32.31c1.387,-11.72 -0.674,-35.668 -13.968,-38.015Zm755.508,-1.013c39.291,-10.067 184.697,-20.803 224.708,-21.432c7.801,-0.122 13.954,11.273 15.361,17.659c1.407,6.387 -0.009,18.423 -6.918,20.658c-37.739,12.211 -178.814,48.925 -219.513,52.605c-13.031,1.179 -22.405,-18.942 -24.678,-30.524c-2.274,-11.581 -2.038,-35.616 11.04,-38.966Z" style="fill:#d58569;stroke:#ee9500;stroke-opacity:0;stroke-width:25px;"/><path d="M1180.45,990.792c97.561,0 176.768,79.207 176.768,176.768c-0,97.561 -79.207,176.768 -176.768,176.768c-97.561,-0 -176.768,-79.207 -176.768,-176.768c0,-97.561 79.207,-176.768 176.768,-176.768Zm-0,25.866c83.285,-0 150.902,67.617 150.902,150.902c0,83.285 -67.617,150.902 -150.902,150.902c-83.285,0 -150.902,-67.617 -150.902,-150.902c-0,-83.285 67.617,-150.902 150.902,-150.902Z" style="fill:url(#_Radial1);stroke:#000;stroke-width:4.17px;"/><circle cx="1181.1" cy="1167.56" r="153.02" style="fill:#393939;stroke:#000;stroke-width:0.95px;"/><path d="M1142.35,947.499c-0.79,-19.483 14.386,-35.942 33.869,-36.732c19.483,-0.791 35.942,14.386 36.732,33.869c0.79,19.483 -14.386,35.942 -33.869,36.732c-19.483,0.79 -35.942,-14.386 -36.732,-33.869Z" style="fill:#232323;stroke:#000;stroke-width:2.27px;"/><path d="M1393.11,1024.5c15.172,12.248 17.547,34.51 5.299,49.682c-12.248,15.173 -34.51,17.547 -49.682,5.299c-15.173,-12.248 -17.547,-34.509 -5.299,-49.682c12.247,-15.172 34.509,-17.547 49.682,-5.299Z" style="fill:#232323;stroke:#000;stroke-width:2.27px;"/><path d="M1405.5,1255.82c10.338,16.533 5.308,38.349 -11.225,48.687c-16.533,10.338 -38.349,5.308 -48.687,-11.225c-10.338,-16.533 -5.308,-38.349 11.225,-48.687c16.533,-10.338 38.349,-5.308 48.687,11.225Z" style="fill:#232323;stroke:#000;stroke-width:2.27px;"/><path d="M1155.48,1413.34c-13.424,-14.143 -12.84,-36.524 1.302,-49.947c14.143,-13.424 36.524,-12.84 49.947,1.303c13.424,14.142 12.84,36.523 -1.303,49.946c-14.142,13.424 -36.523,12.84 -49.946,-1.302Z" style="fill:#232323;stroke:#000;stroke-width:2.27px;"/><path d="M959.917,1305.83c-12.524,-14.946 -10.558,-37.247 4.387,-49.771c14.946,-12.524 37.247,-10.559 49.771,4.387c12.524,14.945 10.558,37.247 -4.387,49.771c-14.945,12.524 -37.247,10.558 -49.771,-4.387Z" style="fill:#232323;stroke:#000;stroke-width:2.27px;"/><path d="M962.77,1077.7c-14.193,-13.371 -14.86,-35.749 -1.489,-49.942c13.371,-14.192 35.749,-14.859 49.942,-1.488c14.192,13.371 14.859,35.749 1.488,49.941c-13.371,14.193 -35.749,14.86 -49.941,1.489Z" style="fill:#232323;stroke:#000;stroke-width:2.27px;"/><defs><radialGradient id="_Radial1" cx="0" cy="0" r="1" gradientUnits="userSpaceOnUse" gradientTransform="matrix(-117.98,148.266,-148.266,-117.98,1194.68,1145.44)"><stop offset="0" style="stop-color:#000;stop-opacity:1"/><stop offset="1" style="stop-color:#2f2f2f;stop-opacity:1"/></radialGradient></defs></svg>